<?xml version="1.0" encoding="UTF-8" standalone="no"?>
<svg
   style="enable-background:new 0 0 48 48;"
   version="1.1"
   viewBox="0 0 48 48"
   xml:space="preserve"
   id="svg21"
   sodipodi:docname="user-trend-2.svg"
   inkscape:version="1.3 (0e150ed6c4, 2023-07-21)"
   xmlns:inkscape="http://www.inkscape.org/namespaces/inkscape"
   xmlns:sodipodi="http://sodipodi.sourceforge.net/DTD/sodipodi-0.dtd"
   xmlns="http://www.w3.org/2000/svg"
   xmlns:svg="http://www.w3.org/2000/svg"><defs
     id="defs21" /><sodipodi:namedview
     id="namedview21"
     pagecolor="#ffffff"
     bordercolor="#999999"
     borderopacity="1"
     inkscape:showpageshadow="2"
     inkscape:pageopacity="0"
     inkscape:pagecheckerboard="0"
     inkscape:deskcolor="#d1d1d1"
     inkscape:zoom="17.25"
     inkscape:cx="24"
     inkscape:cy="24"
     inkscape:window-width="1920"
     inkscape:window-height="1032"
     inkscape:window-x="0"
     inkscape:window-y="0"
     inkscape:window-maximized="1"
     inkscape:current-layer="g21" /><g
     id="Icons"><g
       id="g21"><ellipse
         style="fill:#999999;stroke-width:1.36758"
         id="path22"
         cx="24.260868"
         cy="23.362316"
         rx="22.463768"
         ry="22.89855"
         inkscape:label="background" /><path
         d="M34.32015,18.4547c0,0,1.7228-2.0871,4.8834-0.3154c0,0-0.048,0.2395-0.8141,0.7661    c-0.7662,0.5268,1.0403,5.9798-4.3164,7.7546"
         style="fill:#EFC0A0;"
         id="path1" /><path
         d="M13.92675,18.4707c0,0-1.9699-2.1031-5.1303-0.3314c0,0,0.0478,0.2395,0.814,0.7661    c0.7661,0.5268-1.0403,5.9798,4.3163,7.7546"
         style="fill:#EFC0A0;"
         id="path2" /><path
         d="M24.05775,6.1846c0,0-6.9903,0.0743-8.8494,5.2799c-1.8591,5.2055-1.636,4.3875-1.4129,6.9902    c0.2231,2.6028-2.0024,3.4953-0.146,7.3622c0.7027,1.4636,1.3153,2.9701,2.1026,4.3923c0.8086,1.4606,1.8096,2.8689,3.1912,3.8394    c1.7463,1.2265,3.7625,1.3635,5.8367,1.2897c1.1102-0.0395,2.1626-0.1555,3.1872-0.6074c0.7997-0.3528,1.522-0.8603,2.1509-1.4652    c1.2693-1.221,2.1527-2.7841,2.9152-4.3549c0.4964-1.0226,0.941-2.0692,1.4329-3.0939c1.8564-3.8669-0.3691-4.7594-0.146-7.3622    c0.2231-2.6027,0.4462-1.7847-1.4129-6.9902C31.04815,6.2589,24.05775,6.1846,24.05775,6.1846"
         style="fill:#F9D9C0;"
         id="path3" /><path
         d="M26.10955,20.5417c0,0,0.7228-3.0692,3.5536-3.1157c2.831-0.0465,3.4935,2.7844,3.4935,2.7844    S29.96435,24.1254,26.10955,20.5417z"
         style="fill:#FFF2E3;"
         id="path4" /><path
         d="M22.37565,20.5417c0,0-0.7227-3.0692-3.5537-3.1157c-2.8308-0.0465-3.4934,2.7844-3.4934,2.7844    S18.52085,24.1254,22.37565,20.5417z"
         style="fill:#FFF2E3;"
         id="path5" /><path
         d="m 30.91505,27.4101 c 0,-1.3164 -2.7812,-3.1582 -3.2441,-3.376 -0.2061,-0.0967 -0.3487,-0.627 -0.3711,-0.9727 -0.0022,-0.0306 -0.0139,-0.0573 -0.0218,-0.0858 -0.033,-0.1485 -0.0902,-0.2885 -0.198,-0.4054 -0.3964,-0.4287 -1.1611,-0.4541 -1.332,-0.4541 -0.208,0.0274 -0.4062,0.1787 -0.4062,0.4024 9e-4,0.2207 0.1806,0.3984 0.4004,0.3984 0.0029,0 0.0039,0 0.0078,0 0.229,0 0.615,0.0688 0.7566,0.2594 5e-4,0.0065 9e-4,0.0119 0.0016,0.019 -0.0364,0.3204 -0.3304,0.4505 -0.7446,0.5947 l -0.166,0.0595 c -0.3193,0.124 -0.7021,0.4776 -1.1875,0.9424 -0.1211,0.1172 -0.3183,0.124 -0.457,-0.0078 -0.4707,-0.4531 -0.8565,-0.8096 -1.1787,-0.9346 l -0.166,-0.0595 c -0.42,-0.1465 -0.7198,-0.2764 -0.7286,-0.6768 0.1182,-0.1289 0.5108,-0.1963 0.7491,-0.1963 0.2207,0 0.4004,-0.1787 0.4004,-0.3994 9e-4,-0.2207 -0.1768,-0.4004 -0.3975,-0.4014 -0.168,0.0225 -0.9375,0.0186 -1.3398,0.4541 -0.0904,0.0981 -0.1515,0.2108 -0.1893,0.332 -0.023,0.0478 -0.0383,0.1009 -0.0422,0.1592 -0.0205,0.3369 -0.165,0.876 -0.3711,0.9727 -0.4629,0.2178 -3.2441,2.0596 -3.2431,3.3555 -0.004,0.0742 -0.0831,1.8232 0.708,2.789 0.0791,0.0957 0.1943,0.1465 0.3095,0.1465 0.0899,0 0.1787,-0.0303 0.2539,-0.0908 0.1709,-0.1397 0.1954,-0.3916 0.0557,-0.5635 -0.4932,-0.6016 -0.5488,-1.8213 -0.5273,-2.2607 0,-0.6914 2.1601,-2.3584 2.7832,-2.6514 0.2565,-0.1205 0.432,-0.3407 0.5549,-0.5818 0.256,0.1914 0.5522,0.2956 0.7605,0.3679 l 0.1406,0.0508 c 0.1983,0.0762 0.6631,0.5244 0.9238,0.7744 0.21,0.2012 0.4864,0.3125 0.7774,0.3125 0.29,0 0.5664,-0.1113 0.7939,-0.3291 0.2491,-0.2383 0.711,-0.6826 0.9063,-0.7578 l 0.1406,-0.0508 c 0.2059,-0.0719 0.4979,-0.1753 0.752,-0.3626 0.1228,0.2389 0.2971,0.4569 0.5517,0.5765 0.6231,0.293 2.7832,1.96 2.7842,2.6719 0.0215,0.4179 -0.0322,1.6357 -0.5283,2.2402 -0.1397,0.1719 -0.1153,0.4238 0.0556,0.5635 0.0752,0.0605 0.1641,0.0908 0.2539,0.0908 0.1153,0 0.2305,-0.0508 0.3096,-0.1465 0.791,-0.9658 0.7119,-2.7148 0.709,-2.7685 z"
         style="display:inline;fill:#edc6ab"
         id="path6" /><circle
         cx="29.80518"
         cy="20.27855"
         r="1.48407"
         style="fill:#73BFE5;"
         id="circle6" /><circle
         cx="29.67305"
         cy="20.37992"
         r="0.84447"
         style="fill:#30302F;"
         id="circle7" /><ellipse
         cx="30.28415"
         cy="20.0415"
         style="fill:#FFFFFF;"
         transform="matrix(0.59715 -0.80213 0.80213 0.59715 -3.87599 32.36532)"
         id="ellipse7"
         ry="0.33224"
         rx="0.33224" /><circle
         cx="18.73182"
         cy="20.27855"
         r="1.48413"
         style="fill:#73BFE5;"
         id="circle8" /><g
         id="g8"><path
           d="M27.29005,16.4257c-0.1006,0-0.2002-0.0371-0.2784-0.1123     c-0.1572-0.1533-0.1621-0.4053-0.0097-0.5635c0.083-0.0849,2.0644-2.0801,5.6181-0.7783     c0.2071,0.0762,0.3135,0.3066,0.2383,0.5137c-0.0761,0.207-0.3115,0.3134-0.5136,0.2383     c-3.0469-1.1202-4.7002,0.5126-4.7676,0.583C27.49805,16.3857,27.39455,16.4257,27.29005,16.4257z"
           style="fill:#EDC6AB;"
           id="path8" /></g><g
         id="g9"><path
           d="M21.81055,16.4277c-0.1045,0-0.208-0.0411-0.2871-0.1211l0,0     c-0.0684-0.0704-1.7178-1.7022-4.7676-0.583c-0.2031,0.0771-0.4375-0.0303-0.5137-0.2383     c-0.0752-0.2071,0.0313-0.4375,0.2383-0.5137c3.5596-1.3037,5.5352,0.6934,5.6182,0.7783     c0.1533,0.1592,0.1484,0.4121-0.0108,0.5654C22.01075,16.3905,21.91015,16.4277,21.81055,16.4277z"
           style="fill:#EDC6AB;"
           id="path9" /></g><g
         id="g14"><g
           id="g10"><path
             d="M12.32905,39.4062c-0.2109,0-0.3867-0.1651-0.3994-0.377      c-0.0078-0.1328-0.167-3.2959,1.6836-7.6055c1.0176-2.372,0.1436-4.4902-0.7021-6.538      c-0.5967-1.4454-1.1602-2.8106-0.9287-4.1094c0.2763-1.5537,1.0126-2.8692,1.7929-4.2617      c0.7266-1.2979,1.4776-2.6387,1.9395-4.3067c1.0644-3.8476,4.9121-3.0117,4.9511-3.0019      c0.2159,0.0488,0.3497,0.2627,0.3008,0.4775c-0.0488,0.2139-0.2519,0.3535-0.4785,0.3018      c-0.1269-0.0264-3.1455-0.6641-4.0019,2.4355c-0.4873,1.7617-1.2627,3.1455-2.0127,4.4844      c-0.7461,1.332-1.4512,2.5908-1.7041,4.0117c-0.1895,1.0684,0.33,2.3291,0.8818,3.6631      c0.8662,2.0986,1.8477,4.4775,0.6963,7.1602c-1.7754,4.1376-1.6211,7.2119-1.6192,7.2421      c0.0127,0.2207-0.1552,0.4102-0.3759,0.4229C12.34475,39.4052,12.33685,39.4062,12.32905,39.4062z"
             style="fill:#AA7D5F;"
             id="path10" /></g><g
           id="g11"><path
             d="M13.61325,18.0361c-0.0029,0-0.0058,0-0.0088-0.001c-0.2217-0.0049-0.3965-0.1875-0.3906-0.4082      c0.0439-1.9453,0.7725-5.4073,1.4277-6.1533c0.4092-0.4649,0.8682-1.6075,1.0098-2.0088      c0.5996-1.0479,1.3555-1.6592,2.2773-1.8848c1.5967-0.3916,3.0948,0.543,3.1592,0.583      c0.1856,0.1182,0.2412,0.3652,0.1231,0.5518c-0.1182,0.1855-0.3662,0.2412-0.5518,0.124      c-0.0127-0.0078-1.2783-0.791-2.5459-0.4805c-0.7002,0.1729-1.2851,0.6572-1.7392,1.4404l0,0      c0.0078,0-0.5381,1.5293-1.1309,2.2041c-0.4365,0.4952-1.1846,3.6631-1.2305,5.6417      C14.00775,17.8622,13.83005,18.0361,13.61325,18.0361z"
             style="fill:#AA7D5F;"
             id="path11" /></g><g
           id="g12"><path
             d="M14.16505,41.5556c-0.0479,0-0.0967-0.0088-0.1436-0.0264      c-0.206-0.0801-0.3086-0.3115-0.2295-0.5176c0.0098-0.0263,0.9981-2.6738-0.458-5.2744      c-0.2803-0.499-0.5176-1.0127-0.706-1.5273c-0.3243-0.8897-0.503-1.7608-0.5303-2.5879      c-0.0352-1.0274,0.1504-1.8301,0.5527-2.3848c0.0781-0.1074,0.1592-0.2051,0.2393-0.2998      c0.1621-0.1933,0.291-0.3467,0.3623-0.5625c0.0918-0.2744,0.1455-0.5869,0.1699-0.9853      c0.0264-0.4356,0.0137-0.8623-0.0371-1.2696c-0.0264-0.2187,0.1289-0.4189,0.3486-0.4463      c0.2139-0.0292,0.419,0.128,0.4463,0.3487c0.0557,0.4551,0.0694,0.9306,0.041,1.415c-0.0283,0.4707-0.0957,0.8487-0.209,1.1914      c-0.1201,0.3594-0.3271,0.6055-0.5097,0.8233c-0.0674,0.081-0.1377,0.1631-0.2041,0.2549      c-0.2949,0.4072-0.4297,1.0429-0.4014,1.8876c0.0254,0.7432,0.1875,1.5303,0.4834,2.3409      c0.1729,0.4736,0.3926,0.9482,0.6514,1.4111c1.6455,2.9385,0.5537,5.833,0.5068,5.9541      C14.47655,41.4589,14.32515,41.5556,14.16505,41.5556z"
             style="fill:#AA7D5F;"
             id="path12" /></g><g
           id="g13"><path
             d="M18.57815,8.2236c-0.085,0-0.1709-0.0274-0.2442-0.0831      c-0.1748-0.1347-0.208-0.3857-0.0732-0.5615c0.5488-0.7129,1.167-1.0908,1.8379-1.125c0.6923-0.0107,1.373,0.2949,1.9668,0.9248      l-0.001,0.001c0.1172,0.1055,0.165,0.2754,0.1084,0.4326c-0.0752,0.2071-0.3037,0.3164-0.5117,0.2403      c-0.0586-0.0206-0.1348-0.0791-0.1778-0.125c-0.25-0.2647-0.7402-0.6993-1.3447-0.6749      c-0.4258,0.0215-0.8447,0.2959-1.2432,0.8145C18.81635,8.1698,18.69825,8.2236,18.57815,8.2236z"
             style="fill:#AA7D5F;"
             id="path13" /></g></g><g
         id="g19"><g
           id="g15"><path
             d="M35.97715,39.666c0.2109,0,0.3867-0.1651,0.3994-0.377c0.0078-0.1328,0.167-3.2959-1.6836-7.6054      c-1.0176-2.3721-0.1436-4.4903,0.7021-6.5381c0.5967-1.4453,1.1602-2.8106,0.9288-4.1094      c-0.2764-1.5537-1.0127-2.8691-1.793-4.2617c-0.7266-1.2979-1.4776-2.6387-1.9395-4.3067      c-1.0644-3.8476-4.9121-3.0117-4.9511-3.0019c-0.2159,0.0488-0.3496,0.2627-0.3008,0.4775      c0.0488,0.2139,0.2519,0.3535,0.4785,0.3018c0.127-0.0264,3.1455-0.6641,4.002,2.4355      c0.4873,1.7618,1.2626,3.1455,2.0126,4.4844c0.7461,1.332,1.4512,2.5908,1.7041,4.0117c0.1895,1.0684-0.33,2.3291-0.8818,3.6631      c-0.8662,2.0986-1.8476,4.4776-0.6963,7.1602c1.7754,4.1377,1.6211,7.2119,1.6192,7.2422      c-0.0127,0.2207,0.1552,0.4101,0.3759,0.4228C35.96155,39.665,35.96935,39.666,35.97715,39.666z"
             style="fill:#AA7D5F;"
             id="path14" /></g><g
           id="g16"><path
             d="M34.69295,18.2959c0.0029,0,0.0059,0,0.0088-0.001c0.2217-0.0049,0.3965-0.1875,0.3906-0.4082      c-0.0439-1.9453-0.7724-5.4072-1.4277-6.1533c-0.4092-0.4649-0.8682-1.6075-1.0098-2.0088      c-0.5996-1.0479-1.3555-1.6592-2.2773-1.8848c-1.5967-0.3916-3.0948,0.543-3.1592,0.583      c-0.1856,0.1182-0.2412,0.3653-0.1231,0.5518c0.1182,0.1855,0.3663,0.2412,0.5518,0.124      c0.0127-0.0078,1.2783-0.791,2.5459-0.4805c0.7002,0.1729,1.2852,0.6573,1.7393,1.4405l0,0      c-0.0079,0,0.538,1.5293,1.1308,2.2041c0.4365,0.4951,1.1846,3.6631,1.2305,5.6416      C34.29845,18.122,34.47615,18.2959,34.69295,18.2959z"
             style="fill:#AA7D5F;"
             id="path15" /></g><g
           id="g17"><path
             d="M34.14115,41.8154c0.0479,0,0.0967-0.0088,0.1436-0.0264c0.206-0.08,0.3086-0.3115,0.2295-0.5175      c-0.0098-0.0264-0.9981-2.6739,0.458-5.2745c0.2803-0.499,0.5176-1.0127,0.706-1.5273c0.3243-0.8896,0.503-1.7607,0.5303-2.5879      c0.0352-1.0273-0.1504-1.8301-0.5527-2.3848c-0.0781-0.1074-0.1592-0.205-0.2393-0.2998      c-0.1621-0.1933-0.291-0.3466-0.3623-0.5625c-0.0918-0.2744-0.1455-0.5869-0.1699-0.9853      c-0.0264-0.4356-0.0137-0.8623,0.0371-1.2695c0.0264-0.2188-0.1289-0.419-0.3486-0.4463      c-0.2139-0.0293-0.419,0.1279-0.4463,0.3486c-0.0557,0.4551-0.0693,0.9307-0.041,1.415      c0.0283,0.4707,0.0957,0.8487,0.209,1.1914c0.1201,0.3594,0.3271,0.6055,0.5097,0.8233      c0.0674,0.081,0.1377,0.1631,0.2041,0.2549c0.2949,0.4072,0.4297,1.0429,0.4014,1.8877      c-0.0254,0.7431-0.1875,1.5302-0.4834,2.3408c-0.1729,0.4736-0.3926,0.9482-0.6514,1.4111      c-1.6455,2.9385-0.5537,5.833-0.5068,5.9541C33.82965,41.7187,33.98105,41.8154,34.14115,41.8154z"
             style="fill:#AA7D5F;"
             id="path16" /></g><g
           id="g18"><path
             d="M29.72815,8.4834c0.0849,0,0.1709-0.0274,0.2441-0.083c0.1748-0.1348,0.208-0.3858,0.0732-0.5616      c-0.5488-0.7129-1.167-1.0908-1.8379-1.125c-0.6923-0.0107-1.373,0.295-1.9668,0.9248l0.001,0.001      c-0.1172,0.1055-0.165,0.2754-0.1084,0.4326c0.0752,0.2071,0.3037,0.3164,0.5117,0.2403      c0.0586-0.0205,0.1348-0.0791,0.1778-0.125c0.25-0.2647,0.7402-0.6992,1.3447-0.6748c0.4258,0.0215,0.8447,0.2959,1.2432,0.8144      C29.48985,8.4297,29.60795,8.4834,29.72815,8.4834z"
             style="fill:#AA7D5F;"
             id="path17" /></g></g><circle
         cx="18.57178"
         cy="20.37992"
         r="0.84445"
         style="fill:#30302F;"
         id="circle19" /><ellipse
         cx="19.18292"
         cy="20.0415"
         rx="0.33227"
         ry="0.33224"
         style="fill:#FFFFFF;"
         transform="matrix(0.59725 -0.80205 0.80205 0.59725 -8.34847 23.45742)"
         id="ellipse19" /><g
         id="g20"><path
           d="M20.43865,29.102c0,0,0.262,2.073,3.7426,1.7145h0.0049     c3.4806,0.3585,3.7428-1.7145,3.7428-1.7145h-0.001c-0.8721,0.4716-1.2258,0.3667-3.7418,0.4716     C21.67025,29.6784,20.43865,29.102,20.43865,29.102z"
           style="fill:#FFB7AB;"
           id="path19" /><path
           d="M25.89225,28.3644c-0.8314-0.1696-1.7061,0-1.7061,0s-0.8746-0.1696-1.7061,0     c-0.8314,0.1697-1.8495,0.7127-2.2568,0.4243c0,0,0.0612,0.1349,0.2212,0.3133h-0.0058c0,0,1.2316,0.5764,3.7475,0.4716     c2.516-0.1049,2.8697,0,3.7418-0.4716c0.16-0.1784,0.2211-0.3133,0.2211-0.3133     C27.74175,29.0771,26.72375,28.5341,25.89225,28.3644z"
           style="fill:#F9A195;"
           id="path20" /></g></g></g></svg>
