<svg xmlns:dc="http://purl.org/dc/elements/1.1/" xmlns:cc="http://creativecommons.org/ns#" xmlns:rdf="http://www.w3.org/1999/02/22-rdf-syntax-ns#" xmlns:svg="http://www.w3.org/2000/svg" xmlns="http://www.w3.org/2000/svg" xmlns:sodipodi="http://sodipodi.sourceforge.net/DTD/sodipodi-0.dtd" xmlns:inkscape="http://www.inkscape.org/namespaces/inkscape" width="50mm" height="50mm" viewBox="0 0 177.16535 177.16535" id="svg5337" version="1.1" inkscape:version="0.91 r13725" sodipodi:docname="Icone_wikipedia_hobbit_m.svg">
  <defs id="defs5339"/>
  <sodipodi:namedview id="base" pagecolor="#ffffff" bordercolor="#666666" borderopacity="1.0" inkscape:pageopacity="0.0" inkscape:pageshadow="2" inkscape:zoom="1.4142136" inkscape:cx="236.51558" inkscape:cy="86.263003" inkscape:document-units="px" inkscape:current-layer="g12466" showgrid="false" inkscape:window-width="1366" inkscape:window-height="745" inkscape:window-x="-8" inkscape:window-y="-8" inkscape:window-maximized="1" showguides="false"/>
  <metadata id="metadata5342">
    <rdf:RDF>
      <cc:Work rdf:about="">
        <dc:format>image/svg+xml</dc:format>
        <dc:type rdf:resource="http://purl.org/dc/dcmitype/StillImage"/>
        <dc:title/>
      </cc:Work>
    </rdf:RDF>
  </metadata>
  <g inkscape:label="Calque 1" inkscape:groupmode="layer" id="layer1" transform="translate(0,-875.19685)">
    <g id="g12466" transform="matrix(1.5213953,0,0,1.5213953,418.66971,-2009.2082)">
      <circle r="53.813198" cy="1954.4053" cx="-216.70937" style="fill:#a5db9f;fill-opacity:0.76433122;fill-rule:nonzero;stroke:none" id="path3013-7-6-8-0-7-3"/>
      <path style="fill:#f08c4a;fill-opacity:1" d="m -216.16474,1979.859 c -9.08469,0 -16.8305,6.4763 -20.22599,15.8081 a 49.982546,49.982546 0 0 0 19.6607,4.0418 49.982546,49.982546 0 0 0 20.59685,-4.5098 c -3.49064,-9.0397 -11.11654,-15.3401 -20.03156,-15.3401 z" id="path58-8-8-8-2-0-09" inkscape:connector-curvature="0"/>
      <path id="path190-2-4-1-6-3" d="m -215.9956,1979.9273 c -11.82725,0 -21.80923,9.5895 -24.81913,22.6387 a 53.813194,53.813194 0 0 0 23.99343,5.7157 53.813194,53.813194 0 0 0 25.46846,-6.4621 c -3.21238,-12.6672 -13.04175,-21.8923 -24.64276,-21.8923 z" style="fill:#a3926f;fill-opacity:1" inkscape:connector-curvature="0"/>
      <path sodipodi:nodetypes="ccczcc" id="path192-0-2-2-4-0" d="m -215.9956,1979.7373 0,28.5155 c 8.62576,-0.1426 17.09082,-2.357 24.68154,-6.4564 -1.37387,-6.3484 -6.43051,-13.8499 -10.38229,-16.6775 -3.9518,-2.8276 -11.04145,-5.9526 -14.29923,-5.3816 z" style="opacity:1;fill:#897958;fill-opacity:1" inkscape:connector-curvature="0"/>
      <path id="path62-2-8-4-7-6-5" style="fill:#f7c1a1" d="m -207.55688,1981.9204 c -2.66731,-1.3337 -12.97232,-1.7636 -12.97232,-1.7636 0,0 -1.57654,0.4299 -4.24384,1.7636 0.96992,3.8797 4.36466,6.7895 8.60808,6.7895 4.12217,-0.1207 7.63815,-2.9098 8.60808,-6.7895 z m -12.97275,-16.1249 8.85059,0 -0.13619,15.1328 c -3.32678,-0.5251 -8.71446,-0.7712 -8.71446,-0.7712 z" inkscape:connector-curvature="0" sodipodi:nodetypes="cccccccccc"/>
      <path inkscape:connector-curvature="0" style="fill:#f5b090" d="m -211.80031,1980.3443 0,-14.5488 -4.36465,0 0,22.7932 c 4.12217,0 7.63815,-2.9098 8.60808,-6.7896 -1.33366,-0.6062 -2.78854,-1.091 -4.24343,-1.4548 z" id="path64-0-6-4-6-9-8"/>
      <path inkscape:connector-curvature="0" style="fill:#f7c1a1" d="m -216.6092,1917.3869 c -12.2453,0 -22.06577,10.1843 -22.18701,22.9144 l 0,11.5179 c 0,12.7302 9.82048,23.0357 21.94452,23.0357 12.2453,0 22.06578,-10.1842 22.18705,-22.9144 l 0,-11.518 c 0.12121,-12.7301 -9.82051,-23.0356 -21.94456,-23.0356 z" id="path70-0-3-6-3-0-7-80"/>
      <path inkscape:connector-curvature="0" style="fill:#f5b090" d="m -216.73045,1917.3869 c 9.69924,0 17.70113,10.3055 17.70113,22.9144 l 0,11.5179 c 0,12.7302 -7.88065,22.9144 -17.70113,22.9144 12.2453,0 22.06581,-10.3055 22.06581,-22.9144 l 0,-11.5179 c 0,-12.6089 -9.82051,-22.9144 -22.06581,-22.9144 z" id="path72-5-9-3-1-9-1-6"/>
      <path style="fill:#994f2a;fill-opacity:1;stroke:none;stroke-width:0.1;stroke-miterlimit:4;stroke-dasharray:none;stroke-opacity:1" d="m -195.97011,1922.2447 c -7.55603,-6.9658 -18.41781,-5.7852 -18.41781,-5.7852 1.18061,-0.9445 3.30575,-1.5348 4.84058,-1.8889 0.9445,-0.2362 0.9445,-0.4724 0,-0.7085 -16.52883,-3.8962 -23.49455,8.7367 -23.49455,8.7367 -0.23612,-1.2987 1.18062,-4.1323 2.12514,-5.9032 0.47223,-0.8264 0.11811,-1.1806 -0.70838,-0.7084 -11.92437,6.3755 -10.62567,23.7307 -10.62567,23.7307 0,1.4167 0.10215,2.7438 0.35419,4.2503 0.25207,1.5065 0.77196,3.9827 1.49425,4.741 l 2.63796,-4.741 c 0,0 1.69729,-3.9438 4.53546,-8.064 2.43375,-3.5331 5.7064,-7.1959 9.4671,-8.6129 1.62029,1.1921 3.56123,0.9975 5.55921,1.4448 3.77084,0.8442 -1.32556,5.7482 -1.84572,5.6832 0,0 7.02171,-1.8139 8.26886,-2.4154 1.36931,-0.6605 2.71105,-1.9175 3.88501,-3.0297 8.14636,3.0696 13.105,14.994 13.105,14.994 l 2.58263,6.1983 c 0.58126,-1.7427 1.0641,-3.9769 1.54958,-6.1983 0.47225,-2.8336 0.47225,-5.9031 -0.23613,-8.5006 -1.77095,-5.4308 -5.07671,-10.1535 -9.44504,-13.5771 1.29869,0 2.83351,0.4722 3.89609,0.8264 0.94449,0.4722 1.18063,0.2361 0.47224,-0.4722 z" id="path74-9-7-5-5" inkscape:connector-curvature="0" sodipodi:nodetypes="cccccccczccscscscccccccc"/>
      <path style="fill:#8d4927;fill-opacity:1;fill-rule:evenodd;stroke:none;stroke-width:1px;stroke-linecap:butt;stroke-linejoin:miter;stroke-opacity:1" d="m 90.662109,38.773438 c 4.047688,2.537556 9.347811,2.37315 10.858591,8.081842 l 1.50469,3.740423 c 12.00771,5.043622 19.29297,22.542969 19.29297,22.542969 l 3.92969,9.429687 c 0.88432,-2.651336 1.61881,-6.050059 2.35742,-9.429687 0.71848,-4.311026 0.71835,-8.979816 -0.35938,-12.931641 -2.69431,-8.262394 -7.72513,-15.4476 -14.37109,-20.65625 0.2879,0 0.58494,0.01719 0.88477,0.04492 l -0.35938,-0.316406 C 105.52678,36.228143 98.261559,38.002128 90.662109,38.773438 Z" transform="matrix(0.65729129,0,0,0.65729129,-275.18799,1895.8945)" id="path4249" inkscape:connector-curvature="0" sodipodi:nodetypes="ccccccccccc"/>
      <path style="fill:#f5b090;fill-opacity:1" d="m -191.14871,1946.9697 c 1e-5,3.6828 -1.57414,6.6683 -3.51598,6.6683 -1.94183,0 -3.51599,-2.9855 -3.51597,-6.6683 10e-6,-3.6827 1.57416,-6.6682 3.51597,-6.6682 1.08384,0 3.52807,1.0645 3.52807,1.0645 0,0 -0.0121,3.9765 -0.0121,5.6037 z" id="ellipse66-0-0-8-9-3-9-98" inkscape:connector-curvature="0" sodipodi:nodetypes="sssscs"/>
      <path style="fill:#f7c1a1" d="m -235.28024,1946.9697 c 2e-5,3.6828 -1.57414,6.6683 -3.51598,6.6683 -1.94183,0 -3.51598,-2.9855 -3.51597,-6.6683 0,-1.9181 0.44667,-6.0256 0.44667,-6.0256 0,0 2.13887,-0.6426 3.0693,-0.6426 1.94182,0 3.51597,2.9854 3.51598,6.6682 z" id="ellipse68-1-0-7-9-8-2-0" inkscape:connector-curvature="0" sodipodi:nodetypes="ssscss"/>
      <path style="fill:#994f2a;fill-opacity:1;fill-rule:evenodd;stroke:none;stroke-width:0.65729129px;stroke-linecap:butt;stroke-linejoin:miter;stroke-opacity:1" d="m -233.38427,1936 -0.82995,9.7935 -0.69245,-1.0043 0.69245,4.4901 -1.16194,-0.498 1.32793,7.6356 -0.66397,-0.664 1.65991,7.9676 c 0.78374,2.0822 -0.70424,-0.939 -0.65564,2.1461 -0.15524,0.6557 -0.007,1.4191 0.13751,3.5747 -0.81443,-1.6068 -2.76654,-3.5541 -1.56268,-5.4492 -1.46433,0.2444 -1.81738,0.2816 -2.0405,1.1467 l 0.13751,-3.9686 -1.56268,0.887 0.97581,-4.9277 -1.56267,0.6036 0.53479,-3.5359 1.57418,-4.5177 -1.42487,0.6728 2.0405,-5.5832 -1.23903,0.3604 1.65991,-6.4736 -1.49392,0.8299 0.82996,-4.9797 z" id="path4386-2" inkscape:connector-curvature="0" sodipodi:nodetypes="ccccccccccccccccccccccccc"/>
      <path sodipodi:nodetypes="ccccccccccccccccccccccccc" inkscape:connector-curvature="0" id="path4258" d="m -199.18769,1936.3521 0.82995,9.7935 0.69245,-1.0043 -0.69245,4.4901 1.16194,-0.498 -1.32793,7.6356 0.66397,-0.664 -1.65991,7.9676 c -0.78374,2.0822 0.70424,-0.939 0.65564,2.1461 0.15524,0.6557 0.007,1.4191 -0.13751,3.5747 0.81443,-1.6068 2.76654,-3.5541 1.56268,-5.4492 1.46433,0.2444 1.81738,0.2816 2.0405,1.1467 l -0.13751,-3.9686 1.56268,0.887 -0.97581,-4.9277 1.56267,0.6036 -0.53479,-3.5359 -1.57418,-4.5177 1.42487,0.6728 -2.0405,-5.5832 1.23903,0.3604 -1.65991,-6.4736 1.49392,0.8299 -0.82996,-4.9797 z" style="fill:#8d4927;fill-opacity:1;fill-rule:evenodd;stroke:none;stroke-width:0.65729129px;stroke-linecap:butt;stroke-linejoin:miter;stroke-opacity:1"/>
      <path style="fill:#4e4327;fill-opacity:1;fill-rule:evenodd;stroke:none;stroke-width:0.65729129px;stroke-linecap:butt;stroke-linejoin:miter;stroke-opacity:1" d="m -220.55086,1967.4203 c -8.96581,3.4968 -18.15321,6.3642 -26.29179,12.211 l -0.59161,-4.9179 c -0.0539,-0.4941 -0.14957,-0.9 -0.49873,-0.7691 -2.57606,0.1102 -5.07117,0.9083 -7.26746,2.4373 -0.32905,0.2757 -0.3318,0.5906 -0.11195,0.9323 l 3.70071,6.5916 c 0.18919,0.2964 0.31161,0.6708 0.74577,0.6807 1.76821,-0.2084 4.04922,-1.8419 4.45528,-2.9814 0.91184,-2.2267 16.90273,-10.0645 25.95293,-12.9911 0.98731,-0.7628 0.7795,-1.0972 -0.0932,-1.1934 z" id="path4260" inkscape:connector-curvature="0" sodipodi:nodetypes="ccccccccccc"/>
    </g>
    <path style="fill:#d9cfb3;fill-opacity:1;fill-rule:evenodd;stroke:none;stroke-width:1px;stroke-linecap:butt;stroke-linejoin:miter;stroke-opacity:1" d="m 78.75,1016.1122 11.25,23.5714 10.53571,-23.7499 z" id="path4262" inkscape:connector-curvature="0" sodipodi:nodetypes="cccc"/>
    <path style="fill:#b6a36f;fill-opacity:1;fill-rule:evenodd;stroke:none;stroke-width:1px;stroke-linecap:butt;stroke-linejoin:miter;stroke-opacity:1" d="m 83.0264,1000.8444 c 0,0 -4.356857,0.1504 -6.060915,0.7883 -1.704058,0.6379 -2.697797,1.6836 -3.43093,3.209 -0.733133,1.5254 -1.700991,2.3609 -0.803571,4.589 0.89742,2.2281 3.382029,4.7003 6.313453,6.566 2.931424,1.8657 6.771336,3.8582 11.111678,3.7881 4.340342,-0.07 10.796035,-2.8428 13.384525,-5.0508 2.58849,-2.208 2.49842,-3.4763 3.03045,-5.3033 0.53203,-1.827 0.51319,-3.0559 0.074,-4.4104 -0.43922,-1.3545 -0.59509,-1.9393 -2.28816,-2.8826 -1.69307,-0.9433 -7.887332,-1.5458 -7.887332,-1.5458 l 0.01532,2.9718 5.287982,1.5739 0.50508,2.5254 c 0,0 -3.080742,4.5433 -5.303304,5.8083 -2.222562,1.265 -3.4047,2.2174 -5.948606,2.0153 -2.543906,-0.2021 -6.709247,-2.0316 -8.698606,-3.278 -1.989359,-1.2464 -4.545687,-4.2931 -4.545687,-4.2931 l -0.505076,-1.7678 5.808377,-2.5254 z" id="path4254" inkscape:connector-curvature="0" sodipodi:nodetypes="czzzzzzzzzcccczzzcccc"/>
    <path style="fill:#a58f54;fill-opacity:1;fill-rule:evenodd;stroke:none;stroke-width:1px;stroke-linecap:butt;stroke-linejoin:miter;stroke-opacity:1" d="m 86.12933,1019.271 -5.064588,4.3019 5.039599,-1.2353 4.051774,-2.5528 z" id="path4256" inkscape:connector-curvature="0" sodipodi:nodetypes="ccccc"/>
    <circle style="color:#000000;clip-rule:nonzero;display:inline;overflow:visible;visibility:visible;opacity:1;isolation:auto;mix-blend-mode:normal;color-interpolation:sRGB;color-interpolation-filters:linearRGB;solid-color:#000000;solid-opacity:1;fill:#473e24;fill-opacity:1;fill-rule:evenodd;stroke:none;stroke-width:0.60000002;stroke-linecap:round;stroke-linejoin:round;stroke-miterlimit:4;stroke-dasharray:none;stroke-dashoffset:0;stroke-opacity:1;color-rendering:auto;image-rendering:auto;shape-rendering:auto;text-rendering:auto;enable-background:accumulate" id="path4264" cx="90.368378" cy="1033.1479" r="0.99999988"/>
    <circle r="0.99999988" cy="1028.0587" cx="90.368378" id="circle4266" style="color:#000000;clip-rule:nonzero;display:inline;overflow:visible;visibility:visible;opacity:1;isolation:auto;mix-blend-mode:normal;color-interpolation:sRGB;color-interpolation-filters:linearRGB;solid-color:#000000;solid-opacity:1;fill:#473e24;fill-opacity:1;fill-rule:evenodd;stroke:none;stroke-width:0.60000002;stroke-linecap:round;stroke-linejoin:round;stroke-miterlimit:4;stroke-dasharray:none;stroke-dashoffset:0;stroke-opacity:1;color-rendering:auto;image-rendering:auto;shape-rendering:auto;text-rendering:auto;enable-background:accumulate"/>
    <circle style="color:#000000;clip-rule:nonzero;display:inline;overflow:visible;visibility:visible;opacity:1;isolation:auto;mix-blend-mode:normal;color-interpolation:sRGB;color-interpolation-filters:linearRGB;solid-color:#000000;solid-opacity:1;fill:#473e24;fill-opacity:1;fill-rule:evenodd;stroke:none;stroke-width:0.60000002;stroke-linecap:round;stroke-linejoin:round;stroke-miterlimit:4;stroke-dasharray:none;stroke-dashoffset:0;stroke-opacity:1;color-rendering:auto;image-rendering:auto;shape-rendering:auto;text-rendering:auto;enable-background:accumulate" id="circle4268" cx="90.368378" cy="1022.9695" r="0.99999988"/>
    <path style="fill:#a58f54;fill-opacity:1;fill-rule:evenodd;stroke:none;stroke-width:1px;stroke-linecap:butt;stroke-linejoin:miter;stroke-opacity:1" d="m 96.46875,125.39453 0.01563,2.97266 5.28906,1.57422 0.5039,2.52539 c 0,0 -3.080163,4.54359 -5.302726,5.80859 -1.923061,1.09454 -5.096198,1.7014 -7.294921,1.68164 0.91485,2.53296 -0.988657,3.15903 -3.519532,4.08399 l -0.0332,0.0273 c 1.284103,0.33414 2.626951,0.54218 4.029297,0.51953 4.340343,-0.07 10.796282,-2.84278 13.384772,-5.05078 2.58849,-2.208 2.49726,-3.47573 3.02929,-5.30273 0.53203,-1.82701 0.51341,-3.05566 0.0742,-4.41016 -0.43922,-1.3545 -0.59404,-1.93951 -2.28711,-2.88281 -1.69307,-0.9433 -7.888672,-1.54688 -7.888672,-1.54688 z" transform="translate(0,875.19685)" id="path4270" inkscape:connector-curvature="0" sodipodi:nodetypes="ccccsccccsscscc"/>
  </g>
</svg> 
